<svg width="48" height="48" viewBox="0 0 48 48" fill="none" xmlns="http://www.w3.org/2000/svg">
  <rect width="48" height="48" rx="8" fill="#FF9800" opacity="0.1"/>
  <path d="M14 16C14 14.8954 14.8954 14 16 14H32C33.1046 14 34 14.8954 34 16V32C34 33.1046 33.1046 34 32 34H16C14.8954 34 14 33.1046 14 32V16Z" stroke="#FF9800" stroke-width="2"/>
  <path d="M19 22C19 20.8954 19.8954 20 21 20C22.1046 20 23 20.8954 23 22V26C23 27.1046 22.1046 28 21 28C19.8954 28 19 27.1046 19 26V22Z" stroke="#FF9800" stroke-width="2"/>
  <path d="M25 22C25 20.8954 25.8954 20 27 20C28.1046 20 29 20.8954 29 22V26C29 27.1046 28.1046 28 27 28H25V22Z" stroke="#FF9800" stroke-width="2"/>
</svg>
