<svg width="90" height="32" viewBox="0 0 90 32" fill="none" xmlns="http://www.w3.org/2000/svg">
  <path d="M16 0C7.163 0 0 7.163 0 16C0 24.837 7.163 32 16 32C24.837 32 32 24.837 32 16C32 7.163 24.837 0 16 0ZM16 24C11.582 24 8 20.418 8 16C8 11.582 11.582 8 16 8C20.418 8 24 11.582 24 16C24 20.418 20.418 24 16 24Z" fill="white"/>
  <path d="M40 8H50V12H44V14H49V18H44V20H50V24H40V8Z" fill="white"/>
  <path d="M54 8H64V12H58V14H63V18H58V24H54V8Z" fill="white"/>
  <path d="M68 8H78.17L82 14L78.17 20H68V8ZM72 12V16H75L76 14L75 12H72Z" fill="white"/>
</svg>
