<svg width="120" height="30" viewBox="0 0 120 30" fill="none" xmlns="http://www.w3.org/2000/svg">
  <path d="M12 5C8.13401 5 5 8.13401 5 12C5 15.866 8.13401 19 12 19C15.866 19 19 15.866 19 12C19 8.13401 15.866 5 12 5ZM3 12C3 7.02944 7.02944 3 12 3C16.9706 3 21 7.02944 21 12C21 16.9706 16.9706 21 12 21C7.02944 21 3 16.9706 3 12Z" fill="#7C41FF"/>
  <path d="M26 11H46V13H26V11Z" fill="#7C41FF"/>
  <path d="M50 5H54V21H50V5Z" fill="#7C41FF"/>
  <path d="M59 5H70.5L74 12L70.5 19H59V5Z" fill="#7C41FF"/>
  <path d="M78 5H82V9H88V5H92V21H88V13H82V21H78V5Z" fill="#7C41FF"/>
  <path d="M97 5H101V17H110V21H97V5Z" fill="#7C41FF"/>
  <path d="M115 5H119V9H115V5ZM115 11H119V21H115V11Z" fill="#7C41FF"/>
</svg>
